Coordinates
version=1
nRows=16
nColumns=40
inDegrees=yes

Units are S.I. units (second, meters, Newtons, ...)
If the header above contains a line with 'inDegrees', this indicates whether rotational values are in degrees (yes) or radians (no).

endheader
time	pelvis_tilt	pelvis_list	pelvis_rotation	pelvis_tx	pelvis_ty	pelvis_tz	hip_flexion_r	hip_adduction_r	hip_rotation_r	knee_angle_r	knee_angle_r_beta	ankle_angle_r	subtalar_angle_r	mtp_angle_r	hip_flexion_l	hip_adduction_l	hip_rotation_l	knee_angle_l	knee_angle_l_beta	ankle_angle_l	subtalar_angle_l	mtp_angle_l	lumbar_extension	lumbar_bending	lumbar_rotation	arm_flex_r	arm_add_r	arm_rot_r	elbow_flex_r	pro_sup_r	wrist_flex_r	wrist_dev_r	arm_flex_l	arm_add_l	arm_rot_l	elbow_flex_l	pro_sup_l	wrist_flex_l	wrist_dev_l
     11.63333333	    -22.03452587	     -1.55393413	      7.86338020	     -0.24860189	      1.02807489	      0.01578004	     99.35234248	    -13.81515916	      9.97945027	    122.56199030	      2.13911027	     -3.18134001	     -6.71107917	      0.00000000	     66.17952740	     -1.29779838	      4.37696800	     47.07991046	      0.82169945	    -22.55088033	     -8.04157833	      0.00000000	    -34.28269258	      2.78490586	     -2.22184804	     80.14822448	     -6.94328288	    -11.50930460	     30.31952896	      0.85011514	      0.00000000	      0.00000000	     87.29717159	      0.48763055	      2.64532880	     18.87910052	     89.34857539	      0.00000000	      0.00000000
     11.64166667	    -22.14122526	     -1.91980187	      7.86956818	     -0.24818857	      1.02882512	      0.01570296	    101.31853796	    -13.72321287	     10.04601797	    123.22602034	      2.15069978	     -2.30017969	     -6.79044899	      0.00000000	     64.76777646	     -1.59511914	      4.81711101	     46.11479475	      0.80485500	    -23.02055831	     -7.85471866	      0.00000000	    -34.11349048	      3.26774189	     -2.07171501	     80.22842246	     -6.77699752	    -11.58244791	     30.07781663	      0.84903336	      0.00000000	      0.00000000	     87.22374869	      0.33968302	      2.77721273	     18.67499696	     89.34602323	      0.00000000	      0.00000000
     11.65000000	    -22.38483458	     -2.17373376	      7.83895366	     -0.24814343	      1.02937204	      0.01553143	    103.43100148	    -13.65921512	     10.15123064	    123.50670783	      2.15559870	     -1.86435405	     -6.79638021	      0.00000000	     63.70379014	     -1.75529375	      5.25812534	     45.63972690	      0.79656350	    -23.11490769	     -7.89112093	      0.00000000	    -33.81532600	      3.61316375	     -1.96398108	     80.30821546	     -6.61698439	    -11.68450028	     29.87992293	      0.83829175	      0.00000000	      0.00000000	     87.13639385	      0.20912205	      2.93541421	     18.52349022	     89.35215944	      0.00000000	      0.00000000
     11.65833333	    -22.85781795	     -2.28527449	      8.00247361	     -0.24823758	      1.02932103	      0.01522098	    105.70459416	    -13.54934807	     10.46794735	    123.57268302	      2.15675018	     -1.69474239	     -7.17606080	      0.00000000	     63.14387301	     -1.67722130	      5.51108564	     45.55443334	      0.79507485	    -23.41954229	     -8.04554080	      0.00000000	    -33.23190895	      3.86736504	     -2.10856265	     80.30419898	     -6.44445123	    -12.03688275	     29.62907124	      0.83415983	      0.00000000	      0.00000000	     87.01882885	      0.07469941	      2.95389613	     18.47335636	     89.34409196	      0.00000000	      0.00000000
     11.66666667	    -22.71483372	     -2.43978403	      8.08110479	     -0.24783334	      1.03024094	      0.01500201	    107.00652129	    -13.49214737	     10.47971460	    123.20835996	      2.15039155	     -1.58581934	     -7.26345450	      0.00000000	     62.19676167	     -1.84873854	      5.54278253	     46.02641430	      0.80331247	    -23.43283687	     -8.18793153	      0.00000000	    -33.35447500	      4.17319199	     -2.08617921	     80.32918199	     -6.33704067	    -12.06877853	     29.61951872	      0.83277428	      0.00000000	      0.00000000	     86.94841124	     -0.02517307	      3.00248269	     18.44594431	     89.35193592	      0.00000000	      0.00000000
     11.67500000	    -23.25082262	     -2.61806917	      7.89972103	     -0.24806322	      1.02993384	      0.01507709	    108.95822347	    -13.12532445	     10.35610643	    122.46942907	      2.13749477	     -2.07402090	     -7.98935678	      0.00000000	     62.35309648	     -2.12039441	      5.42161082	     47.07971664	      0.82169607	    -23.64801249	     -9.31928598	      0.00000000	    -32.71425610	      4.28236885	     -1.90408792	     80.37612206	     -6.14043191	    -12.70719641	     29.32332797	      0.82791194	      0.00000000	      0.00000000	     86.77088143	     -0.11349401	      3.34506406	     18.37961400	     89.34738229	      0.00000000	      0.00000000
     11.68333333	    -23.11216956	     -2.63750604	      7.89977049	     -0.24789921	      1.03053832	      0.01493770	    109.93480333	    -13.02935255	     10.24125140	    121.48607849	      2.12033207	     -2.43444686	     -8.28086653	      0.00000000	     62.01544811	     -2.29655176	      5.20122673	     48.54634904	      0.84729363	    -23.74448644	     -9.65740418	      0.00000000	    -32.84007438	      4.39066683	     -1.89786415	     80.45547408	     -6.00494623	    -12.88966469	     29.16428203	      0.82682333	      0.00000000	      0.00000000	     86.73768561	     -0.18751425	      3.39646828	     18.32550189	     89.34158168	      0.00000000	      0.00000000
     11.69166667	    -23.36811014	     -2.82124436	      7.54662925	     -0.24834936	      1.03072466	      0.01533363	    110.86323398	    -12.49245220	      9.76059308	    119.94140624	      2.09337245	     -3.39101451	     -8.93391992	      0.00000000	     62.34263067	     -2.75949001	      5.05438829	     50.34398520	      0.87866830	    -23.63052695	    -10.66283568	      0.00000000	    -32.58627038	      4.40517545	     -1.52929268	     80.61883623	     -5.84995224	    -13.44717969	     28.89869042	      0.81377060	      0.00000000	      0.00000000	     86.68531386	     -0.19712363	      3.41908189	     18.33115334	     89.34653544	      0.00000000	      0.00000000
     11.70000000	    -23.63028727	     -3.36418761	      7.31255429	     -0.24898075	      1.03076404	      0.01591143	    111.39664041	    -12.16417632	      8.65467468	    118.10491257	      2.06131959	     -3.79916926	    -10.89397858	      0.00000000	     63.11052266	     -3.39583975	      5.24703622	     52.57458671	      0.91759964	    -23.80742517	    -11.13519326	      0.00000000	    -32.27856588	      4.79444386	     -1.10366244	     80.84306146	     -5.49491064	    -14.94151208	     28.57605040	      0.80017782	      0.00000000	      0.00000000	     86.62526629	     -0.20577208	      3.08878833	     18.35589389	     89.34567220	      0.00000000	      0.00000000
     11.70833333	    -23.73299854	     -3.41600333	      6.97148634	     -0.24958343	      1.03096311	      0.01619313	    111.53279159	    -11.68829477	      8.18896814	    116.07503928	      2.02589161	     -4.28347059	    -11.38743192	      0.00000000	     63.73349344	     -3.71937556	      5.18876153	     55.10005865	      0.96167744	    -23.67041407	    -12.06011454	      0.00000000	    -32.20300649	      4.69485454	     -0.83966333	     81.03097932	     -5.30509295	    -15.57749356	     28.35087541	      0.79303011	      0.00000000	      0.00000000	     86.62171475	     -0.19627069	      2.75679692	     18.39552624	     89.34564014	      0.00000000	      0.00000000
     11.71666667	    -23.85501536	     -3.37602118	      6.70155394	     -0.25015266	      1.03092789	      0.01627527	    111.38603964	    -11.26822040	      7.87100537	    113.65068804	      1.98357870	     -4.32643876	    -11.49929894	      0.00000000	     64.53384038	     -3.88410698	      5.14264007	     57.82735211	      1.00927769	    -23.10954126	    -12.71264434	      0.00000000	    -32.08231414	      4.53305663	     -0.69216584	     81.13939584	     -5.18808084	    -15.93595760	     28.17476164	      0.78824396	      0.00000000	      0.00000000	     86.57195156	     -0.18369234	      2.42394294	     18.47286522	     89.34307109	      0.00000000	      0.00000000
     11.72500000	    -23.67435417	     -2.97141109	      6.93000398	     -0.25064488	      1.03152062	      0.01569704	    110.60187721	    -11.29860889	      8.04010577	    111.12812893	      1.93955174	     -4.55115566	    -11.50419530	      0.00000000	     65.01545241	     -3.45665078	      5.04534553	     60.42261595	      1.05457359	    -23.23088078	    -12.74778831	      0.00000000	    -32.32997576	      4.27539459	     -1.13723295	     81.18398925	     -5.12347188	    -15.97901322	     28.26274903	      0.77402482	      0.00000000	      0.00000000	     86.60740443	     -0.19394968	      2.34441799	     18.61237107	     89.34061151	      0.00000000	      0.00000000
     11.73333333	    -23.79239190	     -2.94320329	      6.57494289	     -0.25101034	      1.03058437	      0.01606967	    109.98966731	    -10.84934026	      7.74819792	    108.61867940	      1.89575358	     -5.39698377	    -11.45253254	      0.00000000	     66.30793943	     -3.71317779	      5.06501297	     63.82310116	      1.11392325	    -22.60957980	    -13.72444740	      0.00000000	    -32.10727386	      4.02513117	     -0.97779310	     81.22480118	     -5.02976447	    -16.21816729	     27.95391907	      0.78838357	      0.00000000	      0.00000000	     86.51430106	     -0.21265558	      1.93358050	     18.66774564	     89.34225145	      0.00000000	      0.00000000
     11.74166667	    -24.26919328	     -3.58368490	      6.19122033	     -0.25204514	      1.02971868	      0.01690133	    109.09680141	    -10.39125967	      6.59263191	    105.42124424	      1.83994781	     -6.15432294	    -12.52597532	      0.00000000	     68.19950379	     -4.36869814	      5.69195953	     66.96468775	      1.16875428	    -22.89087463	    -14.25296780	      0.00000000	    -31.52509806	      4.33953671	     -0.42007907	     81.15250284	     -5.06208012	    -16.10748235	     27.94912410	      0.79116050	      0.00000000	      0.00000000	     86.43850745	     -0.03897451	      1.18753907	     18.65479247	     89.33965259	      0.00000000	      0.00000000
     11.75000000	    -24.31819435	     -3.42033287	      6.15010865	     -0.25248454	      1.02905515	      0.01699850	    107.91605977	    -10.31028065	      6.45121100	    102.44336084	      1.78797394	     -6.70303413	    -12.13959724	      0.00000000	     69.48842978	     -4.25594157	      5.90372747	     70.15411687	      1.22442032	    -22.81193542	    -14.32722667	      0.00000000	    -31.39725255	      4.07847518	     -0.56025522	     81.08517190	     -5.05060266	    -16.08427572	     27.89954125	      0.79030570	      0.00000000	      0.00000000	     86.41064675	     -0.01828405	      0.96574525	     18.66413697	     89.34447294	      0.00000000	      0.00000000
     11.75833333	    -24.03922594	     -2.95442749	      6.29455151	     -0.25241337	      1.02861095	      0.01678061	    106.20942779	    -10.36325338	      6.61794058	     99.58226670	      1.73803843	     -6.92753735	    -11.50643215	      0.00000000	     70.44268489	     -3.85535203	      5.95932919	     73.47210861	      1.28233020	    -22.42714335	    -14.23028970	      0.00000000	    -31.60970274	      3.63227882	     -0.99512712	     81.16315193	     -4.82712103	    -17.18529512	     27.61147820	      0.78287731	      0.00000000	      0.00000000	     86.43819303	     -0.01576243	      0.69890507	     18.63366005	     89.34193819	      0.00000000	      0.00000000
